<mxfile host="65bd71144e">
    <diagram id="4ml1BV12upiOyldv-orh" name="Page-1">
        <mxGraphModel dx="1095" dy="536" grid="1" gridSize="10" guides="1" tooltips="1" connect="1" arrows="1" fold="1" page="1" pageScale="1" pageWidth="827" pageHeight="1169" math="0" shadow="0">
            <root>
                <mxCell id="0"/>
                <mxCell id="1" parent="0"/>
                <mxCell id="10" value="" style="rounded=1;whiteSpace=wrap;html=1;" vertex="1" parent="1">
                    <mxGeometry x="20" y="140" width="787" height="240" as="geometry"/>
                </mxCell>
                <mxCell id="2" value="Sgw_Server" style="rounded=1;whiteSpace=wrap;html=1;" vertex="1" parent="1">
                    <mxGeometry x="455" y="280" width="130" height="60" as="geometry"/>
                </mxCell>
                <mxCell id="3" value="Sgw_Worker_Sup" style="rounded=1;whiteSpace=wrap;html=1;" vertex="1" parent="1">
                    <mxGeometry x="460" y="180" width="120" height="60" as="geometry"/>
                </mxCell>
                <mxCell id="4" value="SGW_Wk" style="rounded=1;whiteSpace=wrap;html=1;" vertex="1" parent="1">
                    <mxGeometry x="600" y="180" width="120" height="60" as="geometry"/>
                </mxCell>
                <mxCell id="5" value="SGW_Wk" style="rounded=1;whiteSpace=wrap;html=1;" vertex="1" parent="1">
                    <mxGeometry x="620" y="180" width="120" height="60" as="geometry"/>
                </mxCell>
                <mxCell id="6" value="SGW_Wk" style="rounded=1;whiteSpace=wrap;html=1;" vertex="1" parent="1">
                    <mxGeometry x="650" y="180" width="120" height="60" as="geometry"/>
                </mxCell>
                <mxCell id="7" value="SGW_Wk" style="rounded=1;whiteSpace=wrap;html=1;" vertex="1" parent="1">
                    <mxGeometry x="680" y="180" width="120" height="60" as="geometry"/>
                </mxCell>
                <mxCell id="8" value="SGW_Session_Registry (global)" style="rounded=1;whiteSpace=wrap;html=1;" vertex="1" parent="1">
                    <mxGeometry x="260" y="60" width="220" height="60" as="geometry"/>
                </mxCell>
                <mxCell id="9" value="Main Sup" style="rounded=1;whiteSpace=wrap;html=1;" vertex="1" parent="1">
                    <mxGeometry x="290" y="230" width="120" height="60" as="geometry"/>
                </mxCell>
                <mxCell id="11" value="Node" style="text;html=1;strokeColor=none;fillColor=none;align=center;verticalAlign=middle;whiteSpace=wrap;rounded=0;" vertex="1" parent="1">
                    <mxGeometry x="100" y="140" width="40" height="110" as="geometry"/>
                </mxCell>
                <mxCell id="12" value="App" style="rounded=1;whiteSpace=wrap;html=1;" vertex="1" parent="1">
                    <mxGeometry x="70" y="230" width="120" height="60" as="geometry"/>
                </mxCell>
                <mxCell id="13" value="" style="endArrow=classic;html=1;exitX=1;exitY=0.5;exitDx=0;exitDy=0;entryX=0;entryY=0.5;entryDx=0;entryDy=0;" edge="1" parent="1" source="12" target="9">
                    <mxGeometry width="50" height="50" relative="1" as="geometry">
                        <mxPoint x="370" y="340" as="sourcePoint"/>
                        <mxPoint x="420" y="290" as="targetPoint"/>
                    </mxGeometry>
                </mxCell>
                <mxCell id="14" value="" style="endArrow=classic;html=1;exitX=1;exitY=0.5;exitDx=0;exitDy=0;entryX=0;entryY=0.5;entryDx=0;entryDy=0;" edge="1" parent="1" source="9" target="3">
                    <mxGeometry width="50" height="50" relative="1" as="geometry">
                        <mxPoint x="200" y="270" as="sourcePoint"/>
                        <mxPoint x="300" y="270" as="targetPoint"/>
                    </mxGeometry>
                </mxCell>
                <mxCell id="15" value="" style="endArrow=classic;html=1;exitX=1;exitY=0.5;exitDx=0;exitDy=0;entryX=0;entryY=0.5;entryDx=0;entryDy=0;" edge="1" parent="1" source="9" target="2">
                    <mxGeometry width="50" height="50" relative="1" as="geometry">
                        <mxPoint x="420" y="270" as="sourcePoint"/>
                        <mxPoint x="470" y="220" as="targetPoint"/>
                    </mxGeometry>
                </mxCell>
            </root>
        </mxGraphModel>
    </diagram>
</mxfile>